<svg width="538" height="330" viewBox="0 0 538 330" fill="none" xmlns="http://www.w3.org/2000/svg">
<path d="M291.8 46.43C291.77 46.45 290.87 46.5 289.8 46.53C288.73 46.56 287.76 46.61 287.65 46.63C287.54 46.66 287.14 46.71 286.75 46.74C286.37 46.78 285.94 46.83 285.8 46.85C285.66 46.87 285.38 46.92 285.18 46.95C284.74 47.01 284.17 47.09 283.75 47.16C283.16 47.25 280.44 47.82 279.85 47.97C279.52 48.05 279.18 48.13 279.1 48.15C277.68 48.47 274.79 49.42 271.5 50.65C266.97 52.34 261.94 53.97 258.06 55C257.23 55.23 256.33 55.47 256.05 55.5501C252.52 56.5501 243.07 58.5501 239.5 59.0501C239.25 59.0801 238.85 59.1501 238.6 59.2001C238.35 59.2501 237.99 59.3201 237.8 59.3401C237.21 59.4201 233.87 59.9001 233.55 59.9501C233.39 59.9701 232.87 60.0501 232.4 60.1101C231.93 60.1701 231.46 60.2401 231.35 60.2501C231.24 60.2701 230.68 60.3301 230.1 60.4001C229.52 60.4601 228.92 60.5301 228.75 60.5501C228.13 60.6301 227.46 60.7101 227.01 60.7501C226.76 60.7801 226.28 60.8301 225.95 60.8601C225.62 60.9001 225.24 60.9301 225.1 60.9501C224.96 60.9601 224.49 61.0101 224.05 61.0401C223.61 61.0801 223.18 61.1301 223.1 61.1501C223.02 61.1701 222.52 61.2201 222 61.2501C221.48 61.2901 220.89 61.3301 220.7 61.3501C220.51 61.3701 219.97 61.4101 219.5 61.4501C219.03 61.4801 218.38 61.5301 218.05 61.5501C216.57 61.6601 216.09 61.7001 215.2 61.7501C214.68 61.7801 213.98 61.8301 213.65 61.8501C210.36 62.0701 208.36 62.1001 206.65 61.9701C206.1 61.9301 205.56 61.8801 205.45 61.8601C205.34 61.8401 205 61.7901 204.7 61.7501C204.06 61.6601 204.07 61.6701 203.1 61.4601C201.04 61.0201 199.38 60.4801 197.6 59.6501C196.24 59.0201 195.73 58.7401 193.8 57.5301C191.03 55.8101 188.11 54.32 185.27 53.19C182.33 52.02 179.2 51.11 176.38 50.6C175.76 50.49 175.16 50.38 175.05 50.36C174.71 50.3 173.48 50.15 172.45 50.05C172.12 50.02 171.65 49.97 171.4 49.95C170.82 49.89 165.59 49.88 165 49.94C164.75 49.96 164.18 50.01 163.72 50.05C163.27 50.08 162.79 50.13 162.67 50.15C162.55 50.17 162.23 50.21 161.95 50.25C161.48 50.3 160.54 50.44 159.85 50.56C156.73 51.08 152.57 52.25 149.45 53.5C139.22 57.5901 130.56 64.7401 122.41 75.8401C121.49 77.0901 121.4 77.2601 121.42 77.6101C121.44 77.8301 121.46 78.0001 121.47 78.0001C121.49 78.0001 121.98 77.8701 122.56 77.7001C127.51 76.3101 131.37 76.6601 134.15 78.7501C135.36 79.6701 136.04 80.5401 137.17 82.6501C138.55 85.2201 139.07 86.0701 141.75 90.1501C145.13 95.2801 145.89 96.7801 146.4 99.2301C146.87 101.51 146.86 103.42 146.34 105.98C146.14 106.97 145.5 108.77 144.97 109.85C143.78 112.26 142.07 114.27 139.97 115.69C139.4 116.07 138.02 116.78 137.59 116.9L137.29 116.99L137.78 116.37C139.2 114.54 139.92 113.56 140.44 112.72C142.24 109.79 143.2 106.81 143.22 104.15C143.23 102.36 143.09 101.43 142.59 99.9601C141.85 97.7901 140.61 95.9101 138.5 93.7501C136.94 92.1601 136.71 91.7501 136.25 89.7001C134.87 83.6001 130.38 80.0601 124.9 80.7501C122.85 81.0101 120.68 82.0001 118.65 83.6001C118.32 83.8601 117.79 84.2101 117.48 84.3801C116.45 84.9401 115.93 85.0601 109.35 86.2101C107.48 86.5301 105.75 86.8401 105.5 86.9001C105.25 86.9501 104.87 87.0201 104.65 87.0501C104.43 87.0801 103.98 87.1501 103.65 87.2101C103.32 87.2701 102.96 87.3301 102.85 87.3501C102.74 87.3601 102.09 87.4801 101.4 87.6001C100.71 87.7201 100.06 87.8401 99.95 87.8501C99.84 87.8701 98.69 88.0701 97.4 88.3001C96.11 88.5301 94.96 88.7301 94.85 88.7501C94.74 88.7701 94.26 88.8501 93.78 88.9401C93.29 89.0301 92.53 89.1701 92.08 89.2401C87.55 90.0401 78.14 91.9301 76.1 92.4501C75.8 92.5301 74.99 92.7301 74.3 92.9101C67.45 94.6401 62.02 96.8501 57.25 99.8301C55.65 100.83 55.01 101.31 54.05 102.21C53 103.21 52.31 104.11 51.8 105.15C50.59 107.63 50.86 110.07 52.66 112.78C54.06 114.87 58.42 118.76 62.31 121.37C68.15 125.31 75.04 127.79 81.65 128.36C81.98 128.39 82.48 128.43 82.75 128.45C83.43 128.5 87.73 128.5 88.35 128.45C88.63 128.43 89.19 128.38 89.6 128.35C90.01 128.32 90.69 128.25 91.1 128.19C91.51 128.14 92.01 128.07 92.2 128.04C95.91 127.54 100.8 125.91 105.87 123.5C106.56 123.17 107.14 122.9 107.16 122.9C107.17 122.9 107.94 122.54 108.86 122.1C109.77 121.66 110.54 121.3 110.55 121.3C110.57 121.3 111.04 121.08 111.61 120.81C112.18 120.55 113.33 120.02 114.15 119.65C114.98 119.28 116.08 118.77 116.6 118.53C117.12 118.28 117.83 117.95 118.16 117.8C118.77 117.52 119.89 116.99 121.25 116.35C124.89 114.63 124.57 114.75 124.65 115.01C124.69 115.13 124.68 115.26 124.63 115.3C124.59 115.35 121.86 117.16 118.58 119.34C115.3 121.51 112.58 123.34 112.55 123.41C112.5 123.48 112.54 123.5 112.66 123.47C112.77 123.44 113.44 123.32 114.15 123.2C115.73 122.94 121.11 121.88 124.25 121.2C127.36 120.54 130.39 119.9 131.7 119.65C132.82 119.43 133.32 119.38 133.99 119.44C135.33 119.54 136.18 119.88 137.8 120.92C142.25 123.79 147.31 126.36 152.35 128.33C154.48 129.16 158.03 130.34 159.95 130.85C160.28 130.94 160.62 131.03 160.7 131.05C161.58 131.29 162.93 131.63 163.25 131.69C163.47 131.74 164.33 131.92 165.15 132.09C166.51 132.38 168.59 132.76 169.35 132.86C169.52 132.88 169.79 132.92 169.95 132.95C170.36 133.02 170.8 133.08 172.55 133.29C174.03 133.48 177.4 133.52 178.15 133.36C180.49 132.86 181.86 132.15 183.32 130.67C184.37 129.6 185.73 127.64 186.82 125.6C188.61 122.26 189.4 121.12 191.15 119.31C193.48 116.9 196.02 115.3 199.33 114.15C199.76 114 200.14 113.9 200.17 113.94C200.25 114.02 199.2 115.05 197.26 116.8C193.78 119.94 191.64 122.93 190.74 125.92C190.4 127.07 190.31 127.99 190.26 130.6C190.23 132.74 190.2 133.04 189.97 133.93C189.49 135.72 188.81 136.88 187.47 138.17C186.39 139.21 184.78 140.26 182.45 141.45C179.35 143.04 177.59 143.95 174.69 145.48C174.17 145.75 173.17 146.28 172.45 146.65C171.74 147.02 170.79 147.52 170.35 147.75C169.91 147.98 169.1 148.41 168.55 148.7C168 148.99 167.12 149.46 166.6 149.74C166.08 150.03 165.27 150.46 164.8 150.69C164.33 150.93 163.82 151.21 163.65 151.3C163.38 151.46 161.55 152.44 159.25 153.65C158.76 153.91 158.17 154.23 157.95 154.35C157.73 154.47 157.06 154.83 156.45 155.15C155.85 155.47 155.22 155.8 155.05 155.9C154.89 156 154.37 156.28 153.9 156.52C153.43 156.77 152.65 157.19 152.15 157.45C151.66 157.71 151.03 158.05 150.75 158.2C150.48 158.35 149.76 158.73 149.15 159.05C147.15 160.1 144.13 161.96 144.25 162.08C144.27 162.1 144.49 162.08 144.72 162.02C144.96 161.96 145.29 161.89 145.45 161.86C147.82 161.48 147.97 161.46 149.76 161.35C150.48 161.3 151.84 161.4 152.8 161.56C153.32 161.65 154.79 162.09 155.26 162.29C156.65 162.91 158.51 164.58 159.55 166.15C160.31 167.29 160.36 167.38 161.16 168.98L161.82 170.31L162.56 169.6C165.35 166.95 168.06 166 170.91 166.68C173.42 167.28 175.23 168.84 176.53 171.53C176.77 172.04 177.05 172.68 177.15 172.96L177.33 173.47L178.39 172.87C184.53 169.37 188.59 169.44 192.43 173.09C193.42 174.04 194.59 175.45 195.5 176.8C195.9 177.39 196.15 177.68 196.23 177.63C196.39 177.54 197.33 176.83 200.8 174.21C212.23 165.58 220.29 159.42 220.87 158.87C221.39 158.38 221.79 157.33 221.94 156.05C221.98 155.77 222.05 155.21 222.1 154.8C222.15 154.39 222.22 153.73 222.25 153.35C222.29 152.96 222.33 152.54 222.36 152.4C222.38 152.26 222.42 151.86 222.45 151.5C222.48 151.14 222.53 150.69 222.55 150.5C222.57 150.31 222.62 149.86 222.65 149.5C222.69 149.14 222.73 148.69 222.75 148.5C222.77 148.31 222.82 147.79 222.86 147.35C222.89 146.92 222.93 146.49 222.95 146.4C222.97 146.31 223.01 145.84 223.05 145.34C223.08 144.85 223.13 144.34 223.15 144.2C223.2 143.92 223.33 142.54 223.34 142.28C223.34 142.16 223.45 142.08 223.65 142.05C223.81 142.03 224.45 141.93 225.05 141.84C229.78 141.15 234.31 139.27 237.64 136.62C241.7 133.4 244.87 128.32 246.24 122.85C246.56 121.56 246.67 120.92 246.85 119.45C246.93 118.71 246.9 114.77 246.8 114.11C246.74 113.75 246.68 113.31 246.66 113.15C246.27 110.32 244.98 106.55 243.34 103.42C242.98 102.74 242.7 102.16 242.73 102.14C242.77 102.1 245.1 104.62 246.18 105.88C250.98 111.47 253.15 116.86 253.15 123.2C253.15 124.31 253.05 125.96 252.96 126.47C252.94 126.57 252.89 126.9 252.85 127.2C252.65 128.84 252.12 131.15 251.48 133.25C251.1 134.49 250 137.53 249.8 137.91C249.72 138.04 249.74 138.1 249.88 138.14C250.04 138.19 251.74 138.56 252.24 138.66C252.35 138.68 252.79 138.77 253.2 138.85C253.61 138.93 254.06 139.02 254.2 139.05C254.34 139.08 254.79 139.16 255.2 139.25C255.61 139.33 256.09 139.42 256.25 139.45C256.99 139.59 261.19 140.29 261.55 140.34C262.02 140.4 262.52 140.47 263.4 140.6C264.24 140.73 266.28 140.97 267.05 141.05C267.6 141.1 268.02 141.15 268.85 141.25C269.02 141.27 269.51 141.32 269.95 141.35C270.39 141.38 270.89 141.43 271.05 141.45C271.22 141.47 271.8 141.51 272.35 141.55C272.9 141.59 273.51 141.64 273.7 141.66C273.89 141.68 274.82 141.72 275.75 141.75C276.69 141.79 277.52 141.84 277.6 141.87C277.83 141.96 288.1 141.98 289.4 141.89C290.03 141.85 291.23 141.79 292.05 141.75C292.88 141.72 293.71 141.67 293.9 141.65C294.09 141.64 294.68 141.59 295.2 141.56C295.73 141.52 296.36 141.47 296.6 141.45C296.85 141.42 297.32 141.38 297.65 141.35C297.98 141.32 298.41 141.27 298.6 141.25C298.79 141.23 299.2 141.18 299.5 141.15C299.8 141.12 300.59 141.03 301.25 140.95C301.91 140.86 302.65 140.77 302.9 140.75C303.5 140.68 304 140.61 304.29 140.55C304.42 140.53 304.78 140.48 305.09 140.45C305.4 140.41 305.72 140.37 305.8 140.35C305.88 140.32 306.13 140.28 306.35 140.25C311.59 139.46 318.07 138.05 324.15 136.36C326.29 135.77 330.28 134.55 330.36 134.47C330.39 134.44 330.14 133.91 329.8 133.29C328.61 131.08 327.7 128.6 327.41 126.75C327.09 124.78 327.06 123.93 327.25 122.46C327.59 119.79 328.55 117.75 330.26 116.03C331.06 115.22 332.28 114.36 333.25 113.91C333.74 113.68 335.25 113.1 335.36 113.1C335.39 113.1 335.26 113.38 335.07 113.72C334 115.63 333.47 116.79 332.79 118.65C332.22 120.2 331.73 122.4 331.55 124.25C331.48 124.99 331.47 127.52 331.54 128C331.57 128.19 331.64 128.71 331.7 129.15C331.76 129.59 331.92 130.42 332.06 131C332.19 131.58 332.33 132.14 332.35 132.25C332.52 133 333.68 135.87 334.28 137C335.3 138.91 336.76 141.13 338.14 142.85C338.45 143.23 338.69 143.58 338.67 143.62C338.66 143.66 337.8 144.29 336.75 145.03C335.71 145.76 333.57 147.29 332 148.41C326.61 152.29 325.15 153.34 324.39 153.89C323.97 154.2 323.07 154.85 322.39 155.34C319.88 157.16 317.27 159.13 316.82 159.53C316.24 160.07 313.1 163.48 313.1 163.58C313.1 163.69 315.26 163.61 316.6 163.45C316.74 163.44 317.12 163.39 317.45 163.36C317.78 163.32 318.19 163.27 318.35 163.25C320.01 163.04 321.86 163.03 322.9 163.21C325.31 163.64 326.62 165.39 326.86 168.52C326.9 168.97 326.93 169.36 326.94 169.37C326.95 169.38 327.45 169.3 328.05 169.19C328.66 169.08 329.29 168.97 329.45 168.94C329.62 168.91 329.91 168.85 330.1 168.8C330.29 168.75 331.08 168.6 331.85 168.46C332.62 168.32 333.41 168.18 333.6 168.15C333.79 168.11 334.72 168.07 335.65 168.05C337.57 168.01 338.34 168.14 339.44 168.73C340.21 169.14 341.45 170.31 342.04 171.2C342.52 171.91 343.6 173.98 343.6 174.18C343.6 174.27 343.85 174.88 343.96 175.08C343.97 175.1 344.47 174.63 345.07 174.03C346.82 172.28 348.33 171.38 350.1 171C352.54 170.49 354.54 171.02 356.1 172.59C356.93 173.44 357.55 174.41 358.36 176.17C358.65 176.8 358.91 177.31 358.96 177.31C359 177.31 359.2 177.01 359.4 176.63C359.6 176.26 359.94 175.63 360.15 175.25C360.35 174.86 360.65 174.32 360.8 174.05C361.1 173.51 361.67 172.44 362.38 171.1C362.62 170.63 362.88 170.16 362.95 170.05C363.01 169.94 363.33 169.35 363.65 168.75C363.97 168.14 364.4 167.36 364.6 167C364.99 166.31 365.43 165.5 366.3 163.85C366.59 163.3 366.86 162.8 366.9 162.75C366.95 162.69 367.31 162.04 367.72 161.3C368.13 160.56 368.82 159.32 369.25 158.55C370.44 156.42 370.77 155.7 370.94 154.87C371.37 152.79 370.95 151.45 368.99 148.7C367.68 146.86 366.75 145.51 365.98 144.3C365.64 143.78 365.22 143.12 365.05 142.85C364.62 142.18 363.56 140.29 362.91 139.05C360.18 133.77 359.98 130.82 362.2 128.47C363.29 127.31 364.64 126.48 367.1 125.46C368.85 124.73 369.22 124.55 370.01 124.05C372.95 122.16 373.28 119.95 371.13 116.61C370.41 115.5 369.21 113.94 368.74 113.49C368.52 113.29 367.38 112.34 366.2 111.38C365.02 110.42 362.81 108.63 361.3 107.4C356.99 103.9 350.37 98.6301 349 97.6001C348.31 97.0901 346.6 95.9101 345.2 94.9701C342.41 93.1201 342.45 93.1901 344.45 93.6201C347.31 94.2201 351.5 95.5501 353.57 96.5001C353.81 96.6101 354.03 96.7001 354.06 96.7001C354.16 96.7001 357.67 98.4501 358.28 98.8001C364.31 102.25 369.37 106.75 373.65 112.45C375.45 114.85 376.86 117.01 377.61 118.5C378.53 120.34 378.85 121.56 378.84 123.15C378.83 124.06 378.79 124.38 378.57 125.02C378.13 126.31 377.2 127.64 376.04 128.66C375.69 128.97 375.41 129.24 375.43 129.26C375.48 129.31 376.67 129.47 377.65 129.55C379.17 129.68 379.58 129.7 381.6 129.76C382.78 129.79 383.77 129.84 383.8 129.85C383.83 129.87 384.64 129.91 385.6 129.94C386.56 129.98 387.53 130.02 387.75 130.05C387.97 130.08 388.76 130.12 389.5 130.15C390.24 130.18 391.26 130.22 391.75 130.25C392.95 130.33 393.95 130.38 395.7 130.45C397.1 130.51 398.18 130.56 399.85 130.65C400.29 130.67 401.3 130.72 402.1 130.75C402.9 130.78 404 130.83 404.55 130.85C405.55 130.9 406.93 130.95 409.55 131.05C411.01 131.1 413.04 131.18 414.5 131.25C414.97 131.27 416.59 131.31 418.1 131.34C419.61 131.38 421.08 131.42 421.35 131.45C421.81 131.49 423.81 131.55 428.9 131.65C431.12 131.7 440.86 131.7 442.9 131.65C446.5 131.57 449.72 131.45 451.05 131.35C451.44 131.33 452.34 131.28 453.05 131.24C453.77 131.21 454.53 131.17 454.75 131.14C454.97 131.12 455.56 131.08 456.05 131.05C456.55 131.02 457.15 130.97 457.4 130.95C457.65 130.93 458.17 130.88 458.55 130.85C459.92 130.74 461.81 130.56 462.7 130.45C462.89 130.43 463.3 130.38 463.6 130.35C463.9 130.32 464.26 130.28 464.4 130.25C464.54 130.23 464.92 130.18 465.25 130.15C465.58 130.12 465.96 130.07 466.1 130.05C466.24 130.03 466.82 129.94 467.4 129.85C470.72 129.33 474.88 128.31 478.75 127.07C483.48 125.55 484.44 125.09 485.65 123.78C486.71 122.64 487.18 121.23 487.06 119.57C486.77 115.69 483.14 110.81 478.2 107.66C477.18 107.01 474.66 105.8 473.45 105.36C471.75 104.76 469.81 104.29 468.31 104.12C466.97 103.97 463.95 104.05 462.85 104.26C461.78 104.46 458.94 105.23 458.26 105.5C458.14 105.55 457.8 105.66 457.5 105.75C456.56 106.04 450.74 108.21 450.15 108.5C448.86 109.13 441.22 111.79 438.25 112.65C437.92 112.74 437.38 112.9 437.05 113.01C433.46 114.1 427.16 115.52 423.1 116.15C422.96 116.17 422.42 116.26 421.9 116.34C421.38 116.42 420.75 116.52 420.5 116.55C420.25 116.58 419.94 116.63 419.8 116.65C419.66 116.67 419.26 116.72 418.9 116.75C418.54 116.79 418.17 116.84 418.08 116.85C417.99 116.87 417.59 116.91 417.18 116.95C416.78 116.98 416.34 117.03 416.2 117.05C416.06 117.07 415.59 117.12 415.15 117.15C414.71 117.19 414.19 117.23 414 117.25C413.81 117.27 413.09 117.31 412.4 117.35C411.71 117.39 411.12 117.44 411.08 117.46C410.99 117.52 403.33 117.51 402.65 117.45C400.26 117.26 398.7 117.03 396.75 116.58C390.4 115.14 384.83 111.88 380.57 107.12C379.03 105.4 379.07 105.45 375.91 101.12C365.08 86.2601 350.57 72.6901 333.81 61.7601C330.82 59.8001 330.75 59.7601 326.85 57.4201C324.66 56.1101 323.57 55.48 321.29 54.22C318.89 52.89 315.75 51.42 313.2 50.44C310.99 49.59 307.21 48.37 306.11 48.15C306.02 48.13 305.59 48.03 305.15 47.92C303.98 47.62 301.52 47.16 300.05 46.95C299.83 46.92 299.54 46.87 299.4 46.85C299.26 46.83 298.84 46.78 298.45 46.74C298.07 46.71 297.67 46.66 297.57 46.64C297.12 46.56 291.87 46.36 291.8 46.43ZM155.43 78.0501C156.32 78.2801 156.89 78.6001 157.5 79.1901C158.62 80.3101 159.07 81.9501 158.64 83.4101C158.07 85.3501 156.4 86.5501 154.42 86.4501C153.51 86.4001 152.84 86.1801 152.19 85.7101C149.43 83.7401 150.06 79.3301 153.26 78.2201C154.28 77.8601 154.6 77.8301 155.43 78.0501ZM62.14 103.49C62.65 103.71 63.4 104.51 63.73 105.16C64.09 105.88 64.33 107.26 64.25 108.12C64.09 109.94 63.15 111.45 61.9 111.89C59.13 112.87 56.99 108.38 58.66 105.07C59.27 103.88 60.39 103.14 61.39 103.26C61.58 103.28 61.91 103.39 62.14 103.49ZM78.93 110.4C79.19 110.52 79.61 110.85 79.86 111.14C81.66 113.14 81.36 116.99 79.29 118.5C78.11 119.35 76.64 118.93 75.62 117.44C75.31 116.98 74.92 115.74 74.85 114.95C74.73 113.67 75.19 112.11 75.96 111.21C76.85 110.18 77.86 109.9 78.93 110.4Z" fill="#016889"/>
<path d="M154.903 4.61053C150.176 5.57105 143.096 13.6395 135.32 26.8371C132.426 31.755 130.343 36.3655 128.548 41.7829C127.622 44.6261 126.272 49.6976 126.272 50.37C126.272 50.5621 126.156 50.7542 126.04 50.7926C125.905 50.8311 125.268 51.0232 124.632 51.1961C122.51 51.8108 119.249 52.9442 118.265 53.4053C118.053 53.5013 116.702 54.02 115.274 54.5771C113.847 55.115 112.496 55.6337 112.284 55.7297C112.072 55.8258 110.162 56.4597 108.039 57.1513C105.917 57.8429 104.007 58.4961 103.795 58.5921C103.428 58.7458 100.92 59.5526 98.7785 60.1866C98.2576 60.3403 97.4666 60.5324 97.0421 60.59C94.8234 60.955 91.5435 61.7234 91.5435 61.8771C91.5435 62.0692 93.1448 62.5495 95.0163 62.9337C97.5052 63.4139 104.74 63.6445 114.02 63.51C118.805 63.4524 123.706 63.3179 124.921 63.2218C126.137 63.1066 128.355 62.9337 129.841 62.8376C140.067 62.0884 152.588 60.0521 164.762 57.1129C165.399 56.9592 166.364 56.7479 166.885 56.6518C167.425 56.5558 168.023 56.3829 168.235 56.2868C169.586 55.6721 170.627 55.6337 180.776 55.6337C189.168 55.6337 191.503 55.6913 193.799 55.9603C198.159 56.4597 200.899 56.9016 204.7 57.7276C208.771 58.6113 211.935 59.13 214.25 59.2837C218.803 59.6103 222.739 57.2666 222.739 54.2121C222.739 53.0595 221.736 51.6187 220.327 50.8118C217.202 48.9676 204.7 47.6805 196.519 48.3337C194.899 48.4682 194.32 48.4682 194.243 48.2953C194.088 47.8726 195.555 40.7839 197.445 32.8308C198.101 30.1221 198.622 27.5863 198.622 27.2021C198.622 25.7037 197.291 24.2821 195.497 23.8595C192.68 23.1679 187.49 24.1668 182.165 26.4337C181.335 26.7987 180.583 27.0868 180.506 27.0868C180.429 27.0868 179.676 26.28 178.827 25.3195C172.21 17.6353 163.335 8.26053 161 6.45474C158.878 4.80263 156.871 4.20711 154.903 4.61053Z" fill="#F05033"/>
<path d="M72.064 231.744C69.5893 232.597 66.7733 233.195 63.616 233.536C60.544 233.792 56.832 233.92 52.48 233.92C56.576 235.797 59.648 238.144 61.696 240.96C63.744 243.776 64.768 247.189 64.768 251.2C64.768 255.637 63.6587 259.563 61.44 262.976C59.3067 266.389 56.2347 269.077 52.224 271.04C48.2133 273.003 43.4773 273.984 38.016 273.984C34.176 273.984 31.104 273.6 28.8 272.832C27.8613 273.515 27.136 274.368 26.624 275.392C26.112 276.331 25.856 277.355 25.856 278.464C25.856 281.877 28.6293 283.584 34.176 283.584H45.952C50.7307 283.584 54.9973 284.395 58.752 286.016C62.5067 287.637 65.408 289.899 67.456 292.8C69.5893 295.616 70.656 298.816 70.656 302.4C70.656 309.141 67.7547 314.347 61.952 318.016C56.1493 321.771 47.7867 323.648 36.864 323.648C29.2693 323.648 23.2533 322.837 18.816 321.216C14.464 319.68 11.3493 317.376 9.472 314.304C7.68 311.317 6.784 307.435 6.784 302.656H19.584C19.584 305.216 20.0533 307.221 20.992 308.672C22.016 310.208 23.7653 311.317 26.24 312C28.7147 312.768 32.2987 313.152 36.992 313.152C43.8187 313.152 48.7253 312.299 51.712 310.592C54.6987 308.971 56.192 306.539 56.192 303.296C56.192 300.565 54.9973 298.432 52.608 296.896C50.304 295.445 47.1467 294.72 43.136 294.72H31.488C25.4293 294.72 20.8213 293.483 17.664 291.008C14.592 288.533 13.056 285.419 13.056 281.664C13.056 279.36 13.696 277.141 14.976 275.008C16.256 272.875 18.0907 271.04 20.48 269.504C16.4693 267.371 13.5253 264.811 11.648 261.824C9.856 258.752 8.96 254.997 8.96 250.56C8.96 245.867 10.1547 241.728 12.544 238.144C14.9333 234.475 18.2613 231.659 22.528 229.696C26.7947 227.648 31.6587 226.624 37.12 226.624C44.4587 226.709 50.2613 226.197 54.528 225.088C58.88 223.979 63.488 222.229 68.352 219.84L72.064 231.744ZM37.248 236.608C32.7253 236.608 29.312 237.888 27.008 240.448C24.704 242.923 23.552 246.293 23.552 250.56C23.552 254.912 24.704 258.368 27.008 260.928C29.3973 263.403 32.8533 264.64 37.376 264.64C41.6427 264.64 44.8853 263.403 47.104 260.928C49.3227 258.453 50.432 254.912 50.432 250.304C50.432 241.173 46.0373 236.608 37.248 236.608ZM115.15 195.264C117.881 195.264 120.099 196.16 121.806 197.952C123.598 199.659 124.494 201.792 124.494 204.352C124.494 206.912 123.598 209.045 121.806 210.752C120.099 212.459 117.881 213.312 115.15 213.312C112.334 213.312 110.073 212.459 108.366 210.752C106.659 209.045 105.806 206.912 105.806 204.352C105.806 201.707 106.659 199.531 108.366 197.824C110.158 196.117 112.419 195.264 115.15 195.264ZM125.006 285.504H143.438V296H90.574V285.504H110.67V238.912H91.214V228.416H125.006V285.504ZM221.34 292.416C218.78 294.037 215.793 295.317 212.38 296.256C208.967 297.195 205.383 297.664 201.628 297.664C193.948 297.664 188.017 295.701 183.836 291.776C179.655 287.765 177.564 282.347 177.564 275.52V238.912H162.588V228.416H177.564V213.312L191.9 211.648V228.416H214.812L213.148 238.912H191.9V275.392C191.9 279.061 192.839 281.792 194.716 283.584C196.593 285.291 199.58 286.144 203.676 286.144C208.199 286.144 212.38 285.077 216.22 282.944L221.34 292.416Z" fill="black"/>
<path d="M303.85 296H290.154L288.106 252.992C287.85 247.36 287.722 241.941 287.722 236.736C287.722 229.995 287.85 224.661 288.106 220.736L275.05 280.384H262.122L248.17 220.736C248.511 225.088 248.682 231.787 248.682 240.832C248.682 246.293 248.639 250.389 248.554 253.12L246.762 296H233.45L238.442 207.68H256.234L268.906 266.816L280.938 207.68H298.858L303.85 296ZM370.104 279.488C370.104 282.048 370.488 283.968 371.256 285.248C372.024 286.443 373.347 287.339 375.224 287.936L371.896 297.664C364.813 296.811 360.163 293.696 357.944 288.32C355.469 291.392 352.355 293.739 348.6 295.36C344.931 296.896 340.877 297.664 336.44 297.664C329.613 297.664 324.195 295.744 320.184 291.904C316.173 288.064 314.168 282.987 314.168 276.672C314.168 269.589 316.941 264.128 322.488 260.288C328.12 256.448 336.056 254.528 346.296 254.528H355.896V250.176C355.896 245.909 354.616 242.795 352.056 240.832C349.496 238.869 345.784 237.888 340.92 237.888C338.531 237.888 335.757 238.187 332.6 238.784C329.443 239.381 326.243 240.235 323 241.344L319.416 231.232C327.523 228.16 335.416 226.624 343.096 226.624C352.056 226.624 358.797 228.587 363.32 232.512C367.843 236.437 370.104 242.027 370.104 249.28V279.488ZM340.664 287.168C343.651 287.168 346.509 286.4 349.24 284.864C352.056 283.328 354.275 281.195 355.896 278.464V263.488H347.96C341.475 263.488 336.739 264.597 333.752 266.816C330.765 268.949 329.272 272.064 329.272 276.16C329.272 279.744 330.211 282.475 332.088 284.352C334.051 286.229 336.909 287.168 340.664 287.168ZM451.59 292.416C449.03 294.037 446.043 295.317 442.63 296.256C439.217 297.195 435.633 297.664 431.878 297.664C424.198 297.664 418.267 295.701 414.086 291.776C409.905 287.765 407.814 282.347 407.814 275.52V238.912H392.838V228.416H407.814V213.312L422.15 211.648V228.416H445.062L443.398 238.912H422.15V275.392C422.15 279.061 423.089 281.792 424.966 283.584C426.843 285.291 429.83 286.144 433.926 286.144C438.449 286.144 442.63 285.077 446.47 282.944L451.59 292.416ZM483.796 266.816C484.223 273.387 486.1 278.336 489.428 281.664C492.841 284.907 497.108 286.528 502.228 286.528C505.385 286.528 508.372 286.059 511.188 285.12C514.089 284.096 517.033 282.603 520.02 280.64L526.164 289.344C523.007 291.989 519.295 294.037 515.028 295.488C510.761 296.939 506.281 297.664 501.588 297.664C491.263 297.664 483.241 294.464 477.524 288.064C471.807 281.579 468.948 272.96 468.948 262.208C468.948 255.467 470.185 249.408 472.66 244.032C475.135 238.571 478.719 234.304 483.412 231.232C488.105 228.16 493.567 226.624 499.796 226.624C508.756 226.624 515.839 229.653 521.044 235.712C526.335 241.685 528.98 249.92 528.98 260.416C528.98 262.976 528.852 265.109 528.596 266.816H483.796ZM499.924 237.248C495.316 237.248 491.561 238.912 488.66 242.24C485.759 245.568 484.095 250.517 483.668 257.088H515.028C514.857 250.688 513.492 245.781 510.932 242.368C508.372 238.955 504.703 237.248 499.924 237.248Z" fill="#F05033"/>
</svg>
